<?xml version="1.0" encoding="utf-8"?>
<!-- Generator: Adobe Illustrator 24.1.3, SVG Export Plug-In . SVG Version: 6.00 Build 0)  -->
<svg version="1.1" id="Layer_1" xmlns="http://www.w3.org/2000/svg" xmlns:xlink="http://www.w3.org/1999/xlink" x="0px" y="0px"
	 width="100px" height="100px" viewBox="0 0 100 100" style="enable-background:new 0 0 100 100;" xml:space="preserve">
<style type="text/css">
	.st0{fill:#D91E34;}
	.st1{fill:#6EC6D3;}
	.st2{fill:#B3C635;}
	.st3{fill:#00927F;}
</style>
<g>
	<path class="st0" d="M21.9,79.4c0,0.8-0.7,1.5-1.5,1.5H13c-0.8,0-1.5-0.7-1.5-1.5V77c0-0.8,0.7-1.5,1.5-1.5h7.4
		c0.8,0,1.5,0.7,1.5,1.5C21.9,77,21.9,79.4,21.9,79.4z"/>
	<path class="st0" d="M12.8,33.9c0,0.8-0.7,1.5-1.5,1.5H3.9c-0.8,0-1.5-0.7-1.5-1.5v-2.4c0-0.8,0.7-1.5,1.5-1.5h7.4
		c0.8,0,1.5,0.7,1.5,1.5C12.8,31.5,12.8,33.9,12.8,33.9z"/>
	<path class="st1" d="M97.4,45h-2.6c-0.8,0-1.5-0.7-1.5-1.5v-2.4c0-0.8,0.7-1.5,1.5-1.5h1.7C96.9,41.4,97.3,43.2,97.4,45z"/>
	<path class="st2" d="M83.9,63.5c0,0.8-0.7,1.5-1.5,1.5h-7.4c-0.8,0-1.5-0.7-1.5-1.5v-2.4c0-0.8,0.7-1.5,1.5-1.5h7.4
		c0.8,0,1.5,0.7,1.5,1.5V63.5z"/>
	<path class="st1" d="M60.4,46.5c0,0.8-0.7,1.5-1.5,1.5h-7.4c-0.8,0-1.5-0.7-1.5-1.5v-2.4c0-0.8,0.7-1.5,1.5-1.5h7.4
		c0.8,0,1.5,0.7,1.5,1.5V46.5z"/>
	<path class="st3" d="M88.4,77.7c-1.3,1.7-2.8,3.4-4.2,4.9h-4.1c-0.8,0-1.5-0.7-1.5-1.5v-2.4c0-0.8,0.7-1.5,1.5-1.5h7.4
		C87.8,77.3,88.2,77.4,88.4,77.7z"/>
	<path class="st2" d="M40.9,28.6c0,0.8-0.7,1.5-1.5,1.5h-7.4c-0.8,0-1.5-0.7-1.5-1.5v-2.4c0-0.8,0.7-1.5,1.5-1.5h7.4
		c0.8,0,1.5,0.7,1.5,1.5V28.6z"/>
	<path class="st0" d="M27.8,64.6c0,0.8-0.7,1.5-1.5,1.5H19c-0.8,0-1.5-0.7-1.5-1.5v-2.4c0-0.8,0.7-1.5,1.5-1.5h7.4
		c0.8,0,1.5,0.7,1.5,1.5V64.6z"/>
	<path class="st2" d="M91.9,47.8c0,0.8-0.7,1.5-1.5,1.5h-7.3c-0.8,0-1.5-0.7-1.5-1.5v-2.4c0-0.8,0.7-1.5,1.5-1.5h7.4
		c0.8,0,1.5,0.7,1.5,1.5v2.4H91.9z"/>
	<path class="st0" d="M32.7,19.6c0,0.8-0.7,1.5-1.5,1.5h-7.4c-0.8,0-1.5-0.7-1.5-1.5v-2.2c0-0.8,0.7-1.5,1.5-1.5h7.4
		c0.8,0,1.5,0.7,1.5,1.5V19.6z"/>
	<path class="st2" d="M87.2,20.4H81c-0.8,0-1.5-0.7-1.5-1.5v-2.4c0-0.8,0.7-1.5,1.5-1.5h1.2C83.9,16.7,85.6,18.6,87.2,20.4z"/>
	<path class="st3" d="M28.1,36.5c0,0.8-0.7,1.5-1.5,1.5h-7.4c-0.8,0-1.5-0.7-1.5-1.5v-2.4c0-0.8,0.7-1.5,1.5-1.5h7.4
		c0.8,0,1.5,0.7,1.5,1.5V36.5z"/>
	<path class="st0" d="M80.9,42.6c0,0.8-0.7,1.5-1.5,1.5H72c-0.8,0-1.5-0.7-1.5-1.5v-2.4c0-0.8,0.7-1.5,1.5-1.5h7.4
		c0.8,0,1.5,0.7,1.5,1.5V42.6z"/>
	<path class="st0" d="M56.1,79c0,0.8-0.7,1.5-1.5,1.5h-7.4c-0.8,0-1.5-0.7-1.5-1.5v-2.4c0-0.8,0.7-1.5,1.5-1.5h7.4
		c0.8,0,1.5,0.7,1.5,1.5V79z"/>
	<path class="st2" d="M61.4,31.5c0,0.8-0.7,1.5-1.5,1.5h-7.4c-0.8,0-1.5-0.7-1.5-1.5v-2.4c0-0.8,0.7-1.5,1.5-1.5H60
		c0.8,0,1.5,0.7,1.5,1.5V31.5z"/>
	<path class="st3" d="M41.1,12.2c0,0.8-0.7,1.5-1.5,1.5h-7.4c-0.8,0-1.5-0.7-1.5-1.5V9.8c0-0.8,0.7-1.5,1.5-1.5h7.4
		c0.8,0,1.5,0.7,1.5,1.5V12.2z"/>
	<path class="st3" d="M61.4,69.1c0,0.8-0.7,1.5-1.5,1.5h-7.4c-0.8,0-1.5-0.7-1.5-1.5v-2.4c0-0.8,0.7-1.5,1.5-1.5H60
		c0.8,0,1.5,0.7,1.5,1.5V69.1z"/>
	<path class="st3" d="M69.4,83.8c0,0.8-0.7,1.5-1.5,1.5h-7.4c-0.8,0-1.5-0.7-1.5-1.5v-2.4c0-0.8,0.7-1.5,1.5-1.5h7.4
		c0.8,0,1.5,0.7,1.5,1.5V83.8z"/>
	<path class="st0" d="M49.9,38.1c0,0.8-0.7,1.5-1.5,1.5h-7.4c-0.8,0-1.5-0.7-1.5-1.5v-2.4c0-0.8,0.7-1.5,1.5-1.5h7.4
		c0.8,0,1.5,0.7,1.5,1.5V38.1z"/>
	<path class="st1" d="M21.5,50c0,0.8-0.7,1.5-1.5,1.5h-7.4c-0.8,0-1.5-0.7-1.5-1.5v-2.4c0-0.8,0.7-1.5,1.5-1.5H20
		c0.8,0,1.5,0.7,1.5,1.5V50z"/>
	<path class="st0" d="M92.6,28.7c-0.1,0.1-0.4,0.1-0.5,0.1h-7.4c-0.8,0-1.5-0.7-1.5-1.5V25c0-0.8,0.7-1.5,1.5-1.5h4.9
		C90.7,25.3,91.7,27,92.6,28.7z"/>
	<path class="st0" d="M79.6,13c-0.3,0.4-0.7,0.5-1.2,0.5H71c-0.8,0-1.5-0.7-1.5-1.5V9.8c0-0.8,0.7-1.5,1.5-1.5H72
		C74.7,9.6,77.2,11.2,79.6,13z"/>
	<path class="st2" d="M79.2,31.9c0,0.8-0.7,1.5-1.5,1.5h-7.4c-0.8,0-1.5-0.7-1.5-1.5v-2.4c0-0.8,0.7-1.5,1.5-1.5h7.4
		c0.8,0,1.5,0.7,1.5,1.5V31.9z"/>
	<path class="st2" d="M74.4,90l-1.1,0.7l-0.3,0.1c-2.2,1.2-4.5,2.2-7,3h-0.5c-0.8,0-1.5-0.7-1.5-1.5V90c0-0.8,0.7-1.5,1.5-1.5h7.4
		C73.7,88.5,74.4,89.2,74.4,90z"/>
	<path class="st3" d="M63.3,57.6c0,0.8-0.7,1.5-1.5,1.5h-7.4c-0.8,0-1.5-0.7-1.5-1.5v-2.4c0-0.8,0.7-1.5,1.5-1.5h7.4
		c0.8,0,1.5,0.7,1.5,1.5V57.6z"/>
	<path class="st2" d="M51.1,18c0,0.8-0.7,1.5-1.5,1.5h-7.4c-0.8,0-1.5-0.7-1.5-1.5v-2.2c0-0.8,0.7-1.5,1.5-1.5h7.4
		c0.8,0,1.5,0.7,1.5,1.5V18z"/>
	<path class="st2" d="M75.3,74.9c0,0.8-0.7,1.5-1.5,1.5h-7.4c-0.8,0-1.5-0.7-1.5-1.5v-2.4c0-0.8,0.7-1.5,1.5-1.5h7.4
		c0.8,0,1.5,0.7,1.5,1.5V74.9z"/>
	<path class="st1" d="M40.8,82c0,0.8-0.7,1.5-1.5,1.5h-7.4c-0.8,0-1.5-0.7-1.5-1.5v-2.4c0-0.8,0.7-1.5,1.5-1.5h7.4
		c0.8,0,1.5,0.7,1.5,1.5V82z"/>
	<path class="st2" d="M35.1,46.3c0,0.8-0.7,1.5-1.5,1.5h-7.4c-0.8,0-1.5-0.7-1.5-1.5V44c0-0.8,0.7-1.5,1.5-1.5h7.4
		c0.8,0,1.5,0.7,1.5,1.5V46.3z"/>
	<path class="st1" d="M71.8,8.1v0.3c0,0.8-0.7,1.5-1.5,1.5h-7.4c-0.8,0-1.5-0.7-1.5-1.5V6c0-0.7,0.4-1.2,0.9-1.3
		C65.7,5.5,68.7,6.7,71.8,8.1z"/>
	<path class="st2" d="M96.4,60.9c-0.4,1.9-0.9,3.6-1.6,5.3h-0.7c-0.8,0-1.5-0.7-1.5-1.5v-2.4c0-0.8,0.7-1.5,1.5-1.5
		C94.1,60.9,96.4,60.9,96.4,60.9z"/>
	<path class="st0" d="M56.3,93.5c0,0.8-0.7,1.5-1.5,1.5h-7.4c-0.8,0-1.5-0.7-1.5-1.5v-2.4c0-0.8,0.7-1.5,1.5-1.5h7.4
		c0.8,0,1.5,0.7,1.5,1.5C56.3,91.2,56.3,93.5,56.3,93.5z"/>
	<path class="st0" d="M68.6,65.2c0,0.8-0.7,1.5-1.5,1.5h-7.4c-0.8,0-1.5-0.7-1.5-1.5v-2.4c0-0.8,0.7-1.5,1.5-1.5h7.4
		c0.8,0,1.5,0.7,1.5,1.5V65.2z"/>
	<path class="st0" d="M79.8,53.9c0,0.8-0.7,1.5-1.5,1.5H71c-0.8,0-1.5-0.7-1.5-1.5v-2.4c0-0.8,0.7-1.5,1.5-1.5h7.4
		c0.8,0,1.5,0.7,1.5,1.5V53.9z"/>
	<path class="st0" d="M56.3,8.8c0,0.8-0.7,1.5-1.5,1.5h-7.4c-0.8,0-1.5-0.7-1.5-1.5V6.4c0-0.8,0.7-1.5,1.5-1.5h7.4
		c0.8,0,1.5,0.7,1.5,1.5C56.3,6.4,56.3,8.8,56.3,8.8z"/>
	<path class="st3" d="M48.6,26.4c0,0.8-0.7,1.5-1.5,1.5h-7.4c-0.8,0-1.5-0.7-1.5-1.5V24c0-0.8,0.7-1.5,1.5-1.5h7.4
		c0.8,0,1.5,0.7,1.5,1.5V26.4z"/>
	<path class="st0" d="M80.7,85.7c-2,1.6-4.1,3-6.2,4.4l-1.3,0.8h-0.7c-0.8,0-1.5-0.7-1.5-1.5v-2.4c0-0.8,0.7-1.5,1.5-1.5H80
		C80.2,85.5,80.5,85.6,80.7,85.7z"/>
	<path class="st0" d="M93.8,68.3c-0.8,1.9-1.7,3.6-2.8,5.3h-3.7c-0.8,0-1.5-0.7-1.5-1.5v-2.4c0-0.8,0.7-1.5,1.5-1.5
		C87.4,68.3,93.8,68.3,93.8,68.3z"/>
	<path class="st2" d="M48.6,57.2c0,0.8-0.7,1.5-1.5,1.5h-7.4c-0.8,0-1.5-0.7-1.5-1.5v-2.2c0-0.8,0.7-1.5,1.5-1.5h7.4
		c0.8,0,1.5,0.7,1.5,1.5V57.2z"/>
	<path class="st3" d="M67.8,38.4c0,0.8-0.7,1.5-1.5,1.5h-7.4c-0.8,0-1.5-0.7-1.5-1.5V36c0-0.8,0.7-1.5,1.5-1.5h7.4
		c0.8,0,1.5,0.7,1.5,1.5V38.4z"/>
	<path class="st3" d="M75.9,21.5c0,0.8-0.7,1.5-1.5,1.5H67c-0.8,0-1.5-0.7-1.5-1.5v-2.4c0-0.8,0.7-1.5,1.5-1.5h7.4
		c0.8,0,1.5,0.7,1.5,1.5V21.5z"/>
	<path class="st3" d="M96,37.2h-5.7c-0.8,0-1.5-0.7-1.5-1.5v-2.4c0-0.8,0.7-1.5,1.5-1.5h3.8C94.8,33.6,95.4,35.4,96,37.2z"/>
	<path class="st0" d="M68.3,23.7c0,0.8-0.7,1.5-1.5,1.5h-7.4c-0.8,0-1.5-0.7-1.5-1.5v-2.4c0-0.8,0.7-1.5,1.5-1.5h7.4
		c0.8,0,1.5,0.7,1.5,1.5V23.7z"/>
	<path class="st1" d="M85,34.2c0,0.8-0.7,1.5-1.5,1.5h-7.4c-0.8,0-1.5-0.7-1.5-1.5v-2.4c0-0.8,0.7-1.5,1.5-1.5h7.4
		c0.8,0,1.5,0.7,1.5,1.5V34.2z"/>
	<path class="st3" d="M89.7,61.5c0,0.8-0.7,1.5-1.5,1.5h-7.4c-0.8,0-1.5-0.7-1.5-1.5v-2.4c0-0.8,0.7-1.5,1.5-1.5h7.4
		c0.8,0,1.5,0.7,1.5,1.5V61.5z"/>
	<path class="st0" d="M97.5,51.4c0,1.9-0.3,3.6-0.5,5.3h-5.6c-0.8,0-1.5-0.7-1.5-1.5v-2.4c0-0.8,0.7-1.5,1.5-1.5
		C91.5,51.4,97.5,51.4,97.5,51.4z"/>
	<path class="st3" d="M43.5,66.3c0,0.8-0.7,1.5-1.5,1.5h-7.4c-0.8,0-1.5-0.7-1.5-1.5v-2.4c0-0.8,0.7-1.5,1.5-1.5H42
		c0.8,0,1.5,0.7,1.5,1.5V66.3z"/>
	<path class="st1" d="M73.6,50.6c0,0.8-0.7,1.5-1.5,1.5h-7.4c-0.8,0-1.5-0.7-1.5-1.5v-2.2c0-0.8,0.7-1.5,1.5-1.5h7.4
		c0.8,0,1.5,0.7,1.5,1.5V50.6z"/>
	<path class="st1" d="M65.1,15.7c0,0.8-0.7,1.5-1.5,1.5h-7.4c-0.8,0-1.5-0.7-1.5-1.5v-2.4c0-0.8,0.7-1.5,1.5-1.5h7.4
		c0.8,0,1.5,0.7,1.5,1.5V15.7z"/>
	<path class="st1" d="M80.1,72.3c0,0.8-0.7,1.5-1.5,1.5h-7.4c-0.8,0-1.5-0.7-1.5-1.5v-2.4c0-0.8,0.7-1.5,1.5-1.5h7.4
		c0.8,0,1.5,0.7,1.5,1.5C80.1,69.9,80.1,72.3,80.1,72.3z"/>
	<path class="st0" d="M53.8,49.1c0,0.8-0.7,1.5-1.5,1.5h-7.4c-0.8,0-1.5-0.7-1.5-1.5v-2.4c0-0.8,0.7-1.5,1.5-1.5h7.4
		c0.8,0,1.5,0.7,1.5,1.5V49.1z"/>
</g>
</svg>
